<svg width="122" height="94" viewBox="0 0 122 94" fill="none" xmlns="http://www.w3.org/2000/svg">
<path d="M8.9 47.9C9 47.9 9.1 47.9 9.2 47.9C12.9 47.9 19.7 43.2 23.9 37.9L24.4 37.2V37.5C24.4 37.7 24.4 37.9 24.4 38.1V38.2C24.5 39.6 25 41.4 27 42.3C27.7 42.6 28.4 42.8 29.2 42.8C31.5 42.8 33.8 41.4 35.3 40.1C37.4 38.2 41.3 33.3 42.9 28.8C43.2 28.1 43.3 27.4 43.5 26.6V26.5H43.6C43.9 26.5 44.1 26.6 44.4 26.6C44.8 26.6 45.2 26.6 45.6 26.5L45.8 26.4L45.7 26.6C43.1 31.2 41.8 34 41.5 34.9C40.8 36.7 41.2 37.5 41.6 38.1C42.1 38.8 42.6 39.8 43.3 40C43.4 40 43.4 40.1 43.5 40.1C43.7 40.2 43.9 40.3 44.1 40.3C44.4 40.3 44.7 40.1 45.2 39.7C45.7 39.3 47.5 37.3 50.2 34.1L50.4 33.9V34.2C50.4 35.8 50.8 37.9 53.1 39C53.8 39.3 54.5 39.5 55.2 39.5C57.5 39.5 59.8 38.1 61.2 36.7C63.3 34.8 67 29.9 68.5 25.5L68.6 25.3C68.9 24.5 69 23.7 69.2 22.9C69.2 22.7 69.3 22.4 69.3 22.2V22.1H69.4C69.6 22.1 69.8 22.1 70 22.1C70.5 22.1 71.1 22 71.7 21.8L72 21.7L71.9 21.9C71 23.7 70.1 25.3 69.8 25.9L69.7 26.2C68.8 27.9 67.8 29.8 66.7 31.9L66.2 32.5C65.8 33.3 65.3 34.3 65.6 35.4C66 36.6 66.6 37.7 67.6 38.7C67.6 38.7 67.6 38.7 67.7 38.7C69.4 34.8 72.1 29.8 73.9 27.3L74.1 27.1C76.4 23.8 78.6 20.7 82 19.6C82.4 19.5 82.9 19.4 83.3 19.4C84.3 19.4 85 19.7 85.4 19.9C86.2 17.1 85.3 15.3 84.9 14.4L84.8 14.3C84.7 14 84.4 13.9 84.1 13.9C83.8 13.9 83.4 14.1 83 14.3C82.4 14.7 80.2 16.8 78.5 18.7L78.4 18.9V18.7C77.7 15.2 77.1 14.8 75.4 14C75.4 14.2 75.3 14.4 75.2 14.7C75 15.4 74.8 16 74.4 16.7L74.3 16.8C74.3 16.8 74.3 16.9 74.2 17C74.2 17.1 74.1 17.1 74.1 17.2C73.9 17.6 73.6 18.2 73.2 18.9C72.7 19.6 72 20 71.1 20C70.2 20 69.3 19.6 68.7 18.9C67.9 17.1 66.8 16.3 66.8 16.3C66.2 15.7 65.4 15.5 64.6 15.5C64 15.5 63.4 15.6 62.8 15.9C59.6 17.3 57.2 19.7 54.1 24.3L53.9 24.5C53.2 25.5 52.6 26.4 52.2 27.2L51.3 28.4C49.5 30.8 48.4 32.3 46.9 34.2L44.2 37.8L44.9 36.5C45 36.2 59 10.5 60.5 7.5C61.2 6.1 61 5.1 60.6 3.9C60.3 2.8 59.4 1.6 58.3 1.3C58.2 2 57.7 4.5 55.3 9C54.2 11.1 50.8 17.2 47.7 22.8C47.3 23.6 46.9 24.2 46.2 24.4C46.1 24.4 46 24.4 45.8 24.4C44.8 24.4 43.8 23.6 43.2 22.2C42.9 21.3 42.5 20.7 42.3 20.4C41.5 19.4 40.6 18.9 39.5 18.9C38.9 18.9 38.3 19 37.6 19.3C35.4 20.2 33.6 21.6 31.7 23.7C31.1 24.3 29.1 26.6 27.3 29.5C21.5 35.9 13.7 42.8 9.4 42.8C9 42.8 8.6 42.7 8.2 42.6C7.2 42.2 6.5 41.4 6.1 40.3C5 35.8 9 27.3 12.8 21.4C17.4 14.3 26 4.2 30.8 4.2C31.2 4.2 31.6 4.3 31.9 4.4C32.3 4.5 32.5 4.8 32.6 5.3C33.1 7.5 30.1 12.8 27.8 15.5C26.4 17.2 25.7 17.9 25.4 18.3C25.4 18.3 25.4 18.3 25.4 18.4C25.4 18.4 25.4 18.4 25.5 18.4C25.9 18.4 26.1 18.5 26.4 18.5C27.4 18.5 27.8 18.2 28.9 17.3C30.4 16.1 33.8 13.2 35.2 9.2C36.5 5.4 35 1.7 32.8 0.700001C32.1 0.300001 31.2 0 30 0C26.4 0 21.5 3.3 15.5 9.8C4.7 21.4 0.099998 32.9 0.499998 39C0.799998 44.8 5 47.6 8.9 47.9ZM59 25.9C62.8 20.6 64.6 19.8 65.4 19.8C65.6 19.8 65.7 19.9 65.8 20.1C66.4 21.1 65.1 24.9 63 28.5C60.6 32.5 57.3 35.6 56 35.6C55.9 35.6 55.7 35.6 55.6 35.5C54.8 34.8 55.6 30.5 59 25.9ZM33.4 29.2C37.4 24.1 39.3 23.3 40 23.3C40.2 23.3 40.3 23.4 40.4 23.6C40.9 24.6 39.6 28.3 37.3 31.9C35.3 35.1 31.6 38.9 30 38.9C29.9 38.9 29.7 38.9 29.6 38.8C29.5 38.7 29.4 38.5 29.4 38.3C29.4 36.7 30.5 33 33.4 29.2Z" fill="#D8D6CE"/>
<path d="M121.7 36C121.5 35.1 120.9 32.7001 119.3 31.2001L119.2 31.1C119.1 31.1 119 31.1001 119 31.2001C118.2 33.4001 115 39.4 111.8 44.6V44.7C111.5 45.1 111.3 45.5001 111 45.9001L110.9 46.1C110.7 46.4 110.4 46.8 110.2 47.1L110 47.5C109.8 47.8 109.6 48.1001 109.4 48.4001L109.2 48.7C109 48.9 108.8 49.2001 108.7 49.4001C108.6 49.5001 108.5 49.6 108.5 49.7C108.3 50 108.1 50.2001 107.9 50.5C104.2 54.8 101.5 57.5001 101.2 57.8001L100.8 58.2L101 57.7C101 57.7 102.8 53.5001 105.1 49.4001C106.5 47.0001 108.7 43.0001 110 40.8001C110.5 39.9001 110.8 39.3 111 39C111.2 38.7 111.2 38.4 111.2 38.1C111.1 37.3 110.7 35.5 109.4 33.6C109.4 33.5 109.3 33.5 109.2 33.5C109.2 33.5 109 33.5 109 33.6C108.7 34.3 107.8 35.9001 107.1 37.2001C107 37.4001 106.8 37.9001 106.4 38.4001L106.3 38.6C105.8 39.5 105.2 40.7001 104.5 42C101.3 47.8 99.1 51.3001 97.2 53.3001C96.9 53.6001 96.6 53.8 96.3 54.1C96.2 54.2 96.1 54.3001 96 54.4001C94.1 56.1001 92.2 57.5 90.4 58.5C89.8 58.8 89.3 59 89 59C88.8 59 88.6 58.9001 88.5 58.8001C88.2 58.5001 88.3 57.8 88.4 57C89.9 55.6 91.4 54.5001 92.8 53.4001C96.1 50.8001 99.2 48.4001 102.6 43.4001L102.8 43.1C104.1 41.1 103.2 39.1 102.4 37.5C102.2 37.1 101.9 36.7 101.6 36.3C101.2 35.8 100.5 35.5 99.9 35.5C99.5 35.5 99.2 35.6 98.9 35.7001C98.2 36.0001 97.6 36.4001 97 36.9001C93.6 39.8001 90 44.6001 87.5 49.3001L87.4 49.4001L86.7 50.9001C86.1 52.2001 85.7 53.4001 85.4 54.4001C85.3 55.0001 85.2 55.6 85.1 56.1C83.6 57.4 82.6 58.3001 81.8 58.3001C81.4 58.3001 81.1 58.1 80.9 57.6C80 55.6 79.4 51.9 79.4 51.7V51.5H79.6C80 51.6 80.3 51.6 80.7 51.6C81.4 51.6 82 51.4 82.6 51.1C85.2 49.8 86.9 47.2 87.7 46.1C88.3 45.1 89.5 42.6001 89.1 40.8001C88.7 39.3001 88 38 87 37.3C86.9 37.2 86.7 37.1 86.5 37.1C86.3 37.1 86.2 37.1 86 37.2001C84.8 38.0001 84.2 38.5 83.5 39.3L82.4 40.5L82.7 39.8001C85.5 33.5001 87 30.2 87.5 29.3C88.2 28 88 27.2 87.6 26.1C87.3 25.1 86.5 24 85.5 23.8C85.4 24.4 84.9 26.7001 82.7 30.9001C81.6 33.0001 77.4 42.1 74 50C73.4 51 68 59.7 65.1 63.2L64.7 63.7L64.9 63.1C67.8 55 73 45.8 73.7 44.7C74.1 44 74.1 43.7 73.3 42.1C72.7 40.9 71.9 40.2 71.2 40.2C70.9 40.2 70.7 40.3 70.5 40.5C69.6 41.4 65.3 47.7001 62.8 51.9001L62 52.9001L62.6 51.4001C64.1 47.7001 64.6 46.3 63.9 45.1C63.3 44.1 62.3 43.7 61.8 43.7C61.5 43.7 61.5 43.8001 61.5 43.9001C61.5 43.9001 61.3 44.8001 60.9 45.9001C60.5 46.6001 59.9 47.5 59.3 48.2C58.8 48.7 58.2 49.3 57.7 49.6C57.5 49.7 57.4 49.8001 57.2 49.8001C56.4 50.0001 55.8 49.8 55.2 49.1C54.6 47.2 53.6 46.3001 53.6 46.3001C53 45.7001 52.3 45.5 51.5 45.5C50.9 45.5 50.3 45.7 49.7 46.1C48.6 46.7 47.5 47.5001 46.5 48.4001C46.2 48.6001 46 48.9 45.7 49.2C45.7 49.2 45.7 49.2001 45.6 49.3001C45 49.9001 44.3 50.7001 43.7 51.4001C43.7 51.4001 43.7 51.4 43.6 51.5C43.3 51.8 43 52.2 42.8 52.6C42.2 53.5 41.5 54.4 40.8 55.5C38.5 59.2001 36.7 63.1 36 65.7C34.9 67.7 33.7 69.1 33.2 69.1C33.1 69.1 33 69.1 33 69C32.9 68.9001 32.7 68.6 33.2 67C34 64.6 34.7 62.5 35.5 60.9001C38.3 54.6001 42 49.1 42 49.1C42.2 48.9 42.3 48.7001 42.4 48.5C43 47.8 43.3 47.3001 43.2 46.9001C43.2 46.5001 42.8 46.1 42.1 45.5C41.6 45.1 41.3 44.8 41 44.6C40.6 44.3 40.4 44.1001 40.1 43.9001C40 43.9001 39.9 43.8001 39.8 43.8001C39.6 43.8001 39.3 43.9 39.1 44C38 44.6 36 46.6001 29.9 54.3001L29.3 55L29.7 54.2C31.5 50.3 31.9 49.6001 32.4 48.8001L32.6 48.5C32.8 48.2001 32.8 48 32.6 47.7C32.3 47.2 31.5 46.2001 30.1 45.4001C30 45.3001 29.9 45.3001 29.7 45.3001C29.5 45.3001 29.3 45.4 29.2 45.5C29.1 45.5 29 45.6 28.9 45.7C27.9 46.4 25.1 48.4 22.4 52.2L21.6 53.3001L22.2 52.1C23.3 49.8 23 48.3 22.7 47.7C22.7 47.6 22.5 47.6 22.4 47.6C22.3 47.6 22.2 47.6 22.1 47.7C21 48.5 18.1 50.5 14.1 52.6C11.5 53.9 8.1 54.7 5.1 54.7C3.6 54.7 2.4 54.5 1.6 54.1C1.6 54.1 1.6 54.1 1.6 54.2C1.9 55.6 3.8 57.6001 6.7 57.9001C7 58 7.4 58 7.8 58C10.1 58 13.1 57.1 15.9 55.7L16.2 55.5L16 55.9001C10 66.8 8.8 69.3001 6.6 73.9001C6.1 74.9001 5.6 75.9 5 77.2C4.5 78.2 3.5 80.4 2.5 82.6C1.5 84.8 0.5 87.0001 0 88.1001V88.2C1 87.7 3.6 86.6 5.1 86C6.7 85.3 7 85.2 8.1 82.7C8.7 81.4 9.4 79.7 10.1 78.1C10.9 76.2 11.8 74.2001 12.4 72.8001C19.8 57.1001 26 52.5001 26 52.4001L26.3 52.2L26.2 52.6C26.2 52.7 23.2 59.8 20.4 65.6C18.4 69.8 15.9 76.2001 14.5 80C14.1 81 13.8 81.8001 13.6 82.4001V82.5C15 81.9001 18.2 80.7001 19.1 80.4001C19.5 80.2001 19.9 80 20.2 79C20.3 78.6 20.5 78.1 20.7 77.5C21.4 75.1 22.5 71.9001 24.4 67.5C29.6 56 35.7 51.1 35.7 51L36.2 50.6L35.8 51.2C34.6 53.1 31.9 58.9001 30.1 63.3001C29.7 64.4001 29.2 65.6 28.7 67.1C26.2 73.5 26.6 75.6 27 76.2C27.2 76.5 27.4 76.6 27.8 76.6C29.3 76.6 32.3 74 35.8 69.6C36.1 70.8 36.6 71.9001 37.9 72.5C38.5 72.8 39.2 73 39.9 72.9001C42.1 72.8001 44.5 71.1 46 69.6C48.1 67.4 52.1 61.8001 53.9 56.9001L54 56.7C54.3 55.8 54.5 55 54.7 54C54.7 53.8 54.8 53.6001 54.8 53.4001C55.1 53.4001 55.3 53.4001 55.3 53.4001C56.1 53.4001 57 52.9 57.9 52.1L58.3 51.7L58 52.2C57.5 53.2 56.9 54.4 56.3 55.6C54.7 58.8 53.1 62 52.8 62.9001L52.7 63.2C52.2 64.5 51.2 67 51.9 68.7C52.2 69.4 52.7 69.9 53.5 70.2C53.5 70.2 53.5 70.2 53.6 70.2C54.7 67.7 57.3 62.9001 60.8 57.4001C64.2 52.0001 67.2 47.7 67.3 47.7L68.1 46.5L67.4 47.8001C67.2 48.2001 62.8 57.1 61.1 61.2C59.8 64.4 59.7 65.5 60.9 67.1C61.5 67.9 62.1 68.3001 62.7 68.3001C63.4 68.3001 64.2 67.8 65.1 66.7C65.8 65.8 67.2 63.5001 69.1 59.8001L70.1 57.9001L69.3 59.9001C69 60.7001 68.8 61.3 68.7 61.6C68.2 63.3 68.5 64 68.9 64.6C69.3 65.3 69.9 66.1001 70.5 66.3001C70.6 66.3001 70.7 66.3 71 65.5C71.4 64.4001 72.1 62.9001 73.7 59.4001L74.4 57.8001L75.6 55.1L75.7 55.4001C76 57 76.5 59.3001 77.2 60.8001C78.1 62.9001 78.6 63.8001 79.9 63.8001C80.2 63.8001 80.7 63.7 81.1 63.6C82 63.4 83.3 61.9 84.8 60.2L84.9 60.1L85 60.2C85.5 61 86.2 61.8001 87.1 62.4001C87.2 62.5 87.3 62.5 87.4 62.6C87.7 62.8 88 62.8001 88.4 62.8001C90.5 62.8001 93.6 60.6 97.3 56.6L97.5 56.4001V56.7C97.4 59 99.3 61 100.2 61.7C100.3 61.8 100.5 61.9001 100.6 61.9001C100.7 61.9001 100.9 61.9001 101 61.8001C101.6 61.4001 102.8 60.5 104.8 57.9001L105.1 57.5C105.6 56.7001 106.2 55.9001 106.8 55L107.9 53.3001L107 55.1C105.3 58.6 103.5 62.5 102.1 65.5C101.9 66 101.6 66.4001 101.4 66.9001V67H101.3C62.7 71.5 40 79.8001 30.4 83.3001C29.3 83.7001 28.4 84.0001 27.6 84.3001C25.9 84.9001 24.9 85.8001 24.4 87.3001L22.5 93.1001V93.2C24.8 91.6 34.8 87.1 47.7 82.6C61 78 80.7 72.2001 99.4 70.9001H99.6L99.5 71.1C98.4 73.8 97.8 76.1 97.3 78.7C97.2 79.3 98 80.7 98.7 81.6C99.1 82.1 99.5 82.4 99.7 82.7C99.8 82 100.3 80.1 101.3 77.6C101.5 77.1 101.7 76.6 101.9 76C102.4 74.8 102.9 73.2 104 70.7V70.6H104.1C105.5 70.5 106.9 70.4001 108.2 70.4001C109.2 70.4001 110.1 69.9 110.7 69.1L112.2 67C112.2 67 112.2 67 112.2 66.9001C112.2 66.9001 112.2 66.9001 112.1 66.9001C111.1 66.9001 110 66.9001 109 66.9001C108 66.9001 106.9 66.9001 105.8 66.9001H105.6L106 66.1C106 66 106.3 65.5 106.6 65L106.7 64.9001C106.9 64.5 107.1 64.1 107.1 64C107.7 62.6 108.4 61.3 109 60.1L109.2 59.7C109.4 59.3 109.6 58.9001 109.8 58.5L110 58.2C110.2 57.8 110.4 57.5 110.6 57.1C112.4 53.7 115.4 48.3 117.7 44C119.4 40.8 120.9 38.1 121.2 37.5C121.3 37.4 121.3 37.2 121.3 37.1C121.7 36.3 121.7 36.2 121.7 36ZM90.7 50.4001C91.8 47.0001 95.6 42.7 95.7 42.7C96.6 41.8 97.6 41 98.2 40.7C98.3 40.7 98.4 40.6 98.5 40.6C98.7 40.6 98.9 40.7 99.2 41.1C99.6 41.9 99.4 42.7001 98.8 43.5C98.2 44.3 97.1 45.6001 94.3 47.9001C92.8 49.1001 91.3 50.2001 91 50.5L90.7 50.7V50.4001ZM48.7 60C46.1 64.5 42.6 68.1 41.3 68.2C41.2 68.2 41 68.2 40.9 68.1C40.1 67.5 41.3 62.6001 44.8 57.4001C48.9 51.4001 50.7 50.4001 51.5 50.4001C51.7 50.4001 51.8 50.5 51.9 50.7C52.5 51.8 51 56 48.7 60ZM79 47.4001C79.3 46.7001 80.5 44 85.3 40.6L85.5 40.5V40.7C85.5 42.2 83.9 45.1001 82.4 46.9001C81.5 48.0001 79.9 49 79.2 49C78.9 49 78.8 48.9001 78.7 48.8001C78.5 48.5001 78.6 48.0001 79 47.4001Z" fill="#D8D6CE"/>
</svg>
