<svg width="171" height="336" viewBox="0 0 171 336" fill="none" xmlns="http://www.w3.org/2000/svg">
<g clip-path="url(#clip0_2804_70)">
<path d="M7.86124 190.597C5.82569 194.133 7.05261 198.527 12.4611 201.796C17.8696 205.066 22.6246 205.765 26.8433 203.58C30.4144 201.69 27.0785 193.825 21.5713 190.341C15.947 187.17 9.99544 187.277 7.86124 190.597Z" fill="#1C1A1A"/>
<path d="M-9.84609 207.801C-10.6606 212.866 -7.79952 219.122 -5.20913 217.941C-1.75528 216.365 0.163044 213.144 0.977576 208.079C1.79211 203.014 -0.119501 199.975 -2.96877 199.45C-5.81804 198.924 -8.81569 202.638 -9.84609 207.801Z" fill="#1C1A1A"/>
<path d="M89.7388 163.688C95.6436 131.533 92.5928 109.459 85.0578 94.1235C84.9592 93.9078 84.8605 93.6921 84.7619 93.4763C81.1917 86.2401 76.1906 80.4387 71.4669 75.8144C67.2551 71.7388 63.1048 68.9387 60.0954 66.922C57.1847 65.1209 53.9037 64.7923 50.783 65.955C50.1355 66.2504 49.272 66.6442 48.6244 66.9396C44.4556 64.6694 39.8551 62.5962 34.7242 60.5042C13.3741 51.4701 -6.03987 47.8104 -14.7047 46.5481C-6.73478 25.1835 -25.9945 20.1498 -25.9945 20.1498C-19.2606 28.0288 -26.1689 40.3052 -46.8181 56.7634C-50.8579 59.9096 -54.466 62.859 -57.6423 65.6114C-58.5243 66.5351 -59.7208 67.3416 -60.6028 68.2654C-91.5214 95.9257 -99.4869 138.407 -91.6407 190.363C-97.2479 204.914 -88.6471 232.278 -70.6707 243.633L-50.104 253.807C-49.7895 253.924 -49.7895 253.924 -49.6909 254.14C-51.3317 258.538 -52.9481 265.272 -52.2828 273.573C-52.2212 274.848 -52.061 276.339 -51.7836 277.516C-51.6048 278.478 -51.426 279.439 -51.0314 280.302C-50.754 281.479 -50.3594 282.342 -49.8661 283.421C-49.3728 284.499 -48.9782 285.362 -48.269 286.342C-47.1653 288.186 -45.5311 290.047 -43.9957 291.694C-43.897 291.909 -43.5825 292.027 -43.3852 292.458C-31.2615 304.136 -7.12382 312.42 11.3036 313.923C13.2093 314.096 15.1149 314.27 16.9219 314.228C18.7289 314.186 20.7517 314.045 22.5587 314.003C26.1727 313.919 29.8052 313.305 33.4378 312.691C36.7558 311.96 40.5055 311.032 43.8421 309.771C44.2738 309.574 44.4897 309.476 45.2359 309.396C45.6676 309.199 45.8835 309.1 46.5311 308.805C46.9628 308.608 47.1787 308.51 47.8262 308.214C48.258 308.017 48.4738 307.919 49.1214 307.624C49.5531 307.427 49.769 307.328 50.4165 307.033C50.8483 306.836 51.0641 306.737 51.7117 306.442C52.1434 306.245 52.3593 306.147 53.0069 305.851C53.4386 305.654 53.6545 305.556 54.302 305.261C54.7338 305.064 54.9496 304.965 55.5972 304.67C56.0289 304.473 56.2448 304.374 56.8924 304.079C57.3241 303.882 57.54 303.784 58.1875 303.488C58.6193 303.291 58.8351 303.193 59.384 302.682C59.8157 302.485 60.0316 302.387 60.5805 301.875C61.0123 301.679 61.2281 301.58 61.777 301.069C62.2088 300.872 62.4246 300.774 62.9735 300.262C63.4053 300.066 63.7383 299.653 64.1701 299.456C67.4265 297.449 70.4856 295.011 73.5448 292.573C76.7211 289.82 79.6816 287.166 82.5434 284.297C88.7174 277.83 94.2623 271.13 99.6098 263.997C102.077 260.265 104.544 256.532 106.913 252.584C109.066 248.734 110.904 244.767 112.742 240.8C115.086 234.516 116.782 228.528 117.751 222.089C117.943 219.655 118.017 217.536 118.091 215.416L117.992 215.2C118.029 214.14 118.048 213.611 117.869 212.649C117.808 211.374 117.943 210.53 117.863 209.784C117.617 204.682 116.921 200.306 115.774 196.658C115.398 195.265 114.707 193.755 114.214 192.676C111.945 187.715 108.245 184.188 103.663 181.585C100.851 179.999 94.659 177.87 91.1993 176.58C89.6267 175.993 88.7203 174.582 88.7759 172.992C88.184 171.698 88.8256 168.537 89.7388 163.688ZM98.2899 195.507C103.174 201.623 112.108 219.448 98.2176 246.121C97.7674 246.848 97.3171 247.575 96.9655 248.517C95.0472 251.739 93.1289 254.96 90.8961 258.064C86.5478 263.959 81.8849 269.736 76.4943 275.062C71.4367 279.977 66.1819 284.459 60.298 288.707C48.7832 296.045 36.9294 300.931 23.5958 302.58C16.5652 303.179 9.88613 302.836 3.22564 301.964C1.00548 301.673 -1.41201 300.95 -3.73082 300.443C-19.2779 295.541 -34.9481 288.088 -39.9053 274.967C-42.8279 267.435 -40.4215 253.301 -37.596 242.365C-36.1524 237.535 -34.7089 232.705 -33.5798 227.758C-33.5798 227.758 -34.3632 228.897 -35.3809 230.665C-36.0656 232.02 -37.182 233.573 -38.3169 235.655C-43.8796 233.76 -50.8976 230.964 -55.9113 228.558C-62.8121 225.448 -67.1842 219.881 -67.9237 213.7C-70.5697 216.471 -71.6059 218.769 -71.6059 218.769C-71.6414 201.577 -63.9194 193.362 -63.9194 193.362C-53.9646 182.043 -33.8473 183.817 -33.8473 183.817C-27.1497 183.63 -21.8089 182.759 -17.1401 179.847C-3.81828 172.467 8.95026 144.481 18.0298 127.825C27.1094 111.169 37.0204 107.17 48.0723 103.954C52.7285 104.437 67.5285 118.545 69.6544 139.737C69.8146 141.228 69.8576 143.034 69.8019 144.623C69.8441 155.554 67.4689 165.763 65.1864 173.323C57.2737 174.846 51.5442 177.72 51.5442 177.72C55.4727 177.753 59.5985 178.218 63.2925 178.879C74.9052 180.883 83.6931 184.696 84.6367 185.048C89.749 187.67 94.5098 191.235 98.2899 195.507Z" fill="#1C1A1A"/>
<path d="M-16.7658 202.362C-14.983 199.984 -13.1015 197.822 -10.8067 195.993C-10.5908 195.894 -10.5908 195.894 -10.4736 195.58C-9.59149 194.656 -8.82659 194.046 -7.84578 193.338C-7.62989 193.24 -7.51267 192.926 -7.29677 192.827C-4.02124 190.29 -0.332461 188.086 3.65233 186.529C9.14838 184.283 14.8232 182.998 21.0285 181.732C24.1312 181.099 27.0179 180.565 30.2193 180.148C30.2193 180.148 33.8524 179.534 37.4054 178.174C64.3678 163.528 47.5936 126.848 47.5936 126.848C47.5936 126.848 10.6174 172.66 -0.621767 181.177C-2.99661 182.26 -5.48868 183.657 -7.66619 185.172C-9.4119 186.49 -11.0589 188.024 -12.706 189.557C-14.4331 190.345 -35.418 198.092 -64.569 199.393C-57.0825 219.187 -28.3203 219.889 -28.3203 219.889C-28.3203 219.889 -26.3646 215.607 -22.6632 210.007L-17.7651 203.6C-17.432 203.187 -17.0989 202.774 -16.7658 202.362ZM41.8859 150.313C44.8149 160.712 39.9413 169.455 32.5637 173.863C30.5035 175.063 27.7154 175.814 25.0445 176.25C23.2372 176.292 17.8955 177.163 17.8955 177.163C17.8955 177.163 35.3838 160.059 41.8859 150.313ZM-29.948 211.765C-31.7738 212.337 -39.552 213.016 -47.428 204.352C-38.0711 207.125 -22.2677 201.742 -22.2677 201.742C-25.889 208.088 -28.1222 211.193 -29.948 211.765Z" fill="#1C1A1A"/>
<path d="M84.6437 202.746C85.8589 201.41 87.1913 199.759 89.0542 198.127C81.4552 199.768 72.2025 209.203 75.6559 216.755C75.6559 216.755 78.228 216.103 79.5359 212.117L79.6531 211.802C80.0048 210.86 81.0041 209.622 82.4411 211.052C84.4886 213.248 85.6726 215.837 86.0918 219.035C86.6711 223.725 86.0724 228.692 84.9433 233.64C82.3704 243.418 77.5771 252.906 71.76 261.296C70.3104 263.261 68.6449 265.324 66.8807 267.172C65.1165 269.02 63.3524 270.868 61.2736 272.598C57.3321 275.96 53.2918 279.107 48.7397 281.705C39.95 287.018 30.0749 289.957 19.4721 292.447C30.3583 294 41.3929 291.314 51.2435 286.039C56.1101 283.558 60.6808 280.43 65.1528 277.087C67.2316 275.356 69.5262 273.527 71.2904 271.68C73.2704 269.733 75.1518 267.572 77.0332 265.41C80.4815 260.968 83.3006 256.293 85.9224 251.186C87.1747 248.789 88.3283 246.177 89.2661 243.663C90.2038 241.149 91.0429 238.42 91.882 235.69C93.2456 230.114 93.98 224.303 93.0246 218.22C92.3895 215.12 91.5386 212.118 89.5096 209.393C88.3872 208.079 87.1661 206.55 85.7105 205.65C85.7105 205.65 85.7105 205.65 85.6119 205.434C84.0577 204.318 83.9775 203.572 84.6437 202.746Z" fill="#1C1A1A"/>
</g>
<defs>
<clipPath id="clip0_2804_70">
<rect width="171" height="336" fill="white"/>
</clipPath>
</defs>
</svg>
