<svg width="43" height="59" viewBox="0 0 43 59" fill="none" xmlns="http://www.w3.org/2000/svg">
<g id="Group">
<path id="Vector" d="M20.2844 34.0899C19.6151 34.568 19.4716 35.4764 20.1888 36.5283C20.906 37.5802 21.7188 38.1061 22.675 38.0583C23.4878 38.0105 23.5356 36.2892 22.8185 35.1896C22.0535 34.1377 20.9538 33.6596 20.2844 34.0899Z" fill="#D8D6CE"/>
<path id="Vector_2" d="M15.5988 35.7634C15.0251 36.6241 15.0251 38.0106 15.5988 38.0106C16.3638 38.0106 16.9854 37.5803 17.5591 36.7197C18.1329 35.8591 18.0372 35.1419 17.5591 34.8072C17.081 34.4725 16.2204 34.9028 15.5988 35.7634Z" fill="#D8D6CE"/>
<path id="Vector_3" d="M37.5445 36.0024C41.3217 30.5997 42.6126 26.2966 42.517 22.8541C42.517 22.8063 42.517 22.7585 42.517 22.7107C42.4692 21.0851 42.0389 19.6029 41.5607 18.3598C41.1304 17.2601 40.6045 16.3995 40.222 15.778C39.8395 15.2042 39.2658 14.8695 38.5964 14.8217C38.453 14.8217 38.2617 14.8217 38.1183 14.8217C37.5445 14.0567 36.8752 13.2917 36.1102 12.4789C32.9546 9.03647 29.7034 6.74149 28.2212 5.78525C31.4724 2.53404 28.3646 0 28.3646 0C28.9384 2.0081 26.6434 3.68152 21.4797 4.97245C20.4757 5.21151 19.5672 5.45057 18.7544 5.68963C18.5154 5.78525 18.2285 5.83306 17.9894 5.92869C10.0048 8.41491 4.98457 15.5389 2.06804 25.7229C-0.17912 27.9222 -0.896301 33.6596 1.44649 37.2455L4.36302 40.8314C4.41083 40.8793 4.41083 40.8793 4.41083 40.9271C3.74146 41.5964 2.88085 42.6961 2.3071 44.2739C2.21148 44.513 2.11586 44.7998 2.06804 45.0389C2.02023 45.2301 1.97242 45.4214 1.97242 45.6126C1.92461 45.8517 1.92461 46.043 1.92461 46.282C1.92461 46.5211 1.92461 46.7123 1.97242 46.9514C2.02023 47.3817 2.16367 47.8598 2.3071 48.2901C2.3071 48.3379 2.35491 48.3857 2.35491 48.4814C3.59803 51.637 7.32736 55.175 10.5786 56.9919C10.9133 57.1831 11.2479 57.3744 11.5826 57.5178C11.9173 57.6613 12.2998 57.8047 12.6345 57.9481C13.3039 58.235 14.021 58.4263 14.7382 58.6175C15.4076 58.7609 16.1726 58.9044 16.8898 58.9522C16.9854 58.9522 17.0332 58.9522 17.1766 59C17.2723 59 17.3201 59 17.4635 59C17.5591 59 17.6069 59 17.7504 59C17.846 59 17.8938 59 18.0372 59C18.1329 59 18.1807 59 18.3241 59C18.4197 59 18.4676 59 18.611 59C18.7066 59 18.7544 59 18.8979 59C18.9935 59 19.0413 59 19.1847 59C19.2804 59 19.3282 59 19.4716 59C19.5672 59 19.615 59 19.7585 59C19.8541 59 19.9019 59 20.0454 59C20.141 59 20.1888 59 20.3322 58.9522C20.4278 58.9522 20.4757 58.9522 20.6191 58.9044C20.7147 58.9044 20.7625 58.9044 20.906 58.8566C21.0016 58.8566 21.0494 58.8566 21.1928 58.8088C21.2885 58.8088 21.3841 58.7609 21.4797 58.7609C22.2447 58.6653 23.0097 58.4741 23.7747 58.2828C24.5875 58.0438 25.3525 57.8047 26.1175 57.5178C27.7909 56.8485 29.3687 56.0835 30.9465 55.2229C31.7115 54.7447 32.4765 54.2666 33.2415 53.7407C33.9586 53.2147 34.628 52.641 35.2974 52.0673C36.2536 51.111 37.0664 50.1548 37.7836 49.0551C38.0227 48.6248 38.2139 48.2423 38.4052 47.8598V47.812C38.5008 47.6207 38.5486 47.5251 38.5964 47.3339C38.692 47.0948 38.7877 46.9514 38.8355 46.8079C39.218 45.8517 39.457 44.9911 39.5526 44.2261C39.6005 43.9392 39.6005 43.6045 39.6005 43.3655C39.6005 42.2658 39.218 41.3096 38.5964 40.4489C38.2139 39.923 37.2577 39.0146 36.7317 38.4887C36.4927 38.2496 36.4449 37.9149 36.5883 37.628C36.5883 37.3412 36.9708 36.8152 37.5445 36.0024ZM36.4449 42.5527C36.8274 44.0827 36.9708 48.0989 32.1896 51.8282C32.0462 51.9238 31.9027 52.0194 31.7593 52.1629C31.1377 52.5932 30.5162 53.0235 29.8468 53.406C28.5559 54.1232 27.2172 54.7925 25.7828 55.3185C24.4441 55.7966 23.1053 56.1791 21.671 56.466C18.9457 56.8485 16.3638 56.7528 13.782 55.94C12.4432 55.4619 11.2479 54.8404 10.1005 54.1232C9.71796 53.8841 9.33546 53.5494 8.95297 53.2626C6.51456 51.0632 4.2674 48.3857 4.45864 45.5648C4.55427 43.9392 6.17987 41.5486 7.61423 39.7796C8.2836 39.0146 8.95297 38.2496 9.57453 37.4368C9.57453 37.4368 9.33547 37.5802 9.00078 37.8193C8.76172 38.0105 8.42704 38.2018 8.04454 38.4887C7.18393 37.6758 6.13206 36.5762 5.41488 35.7156C4.41083 34.5681 4.07615 33.1815 4.45864 31.9862C3.74146 32.2731 3.35897 32.6078 3.35897 32.6078C4.79333 29.4522 6.89705 28.5916 6.89705 28.5916C9.67015 27.3485 13.2082 29.3566 13.2082 29.3566C14.4513 29.8825 15.5032 30.1694 16.6029 30.0259C19.6629 29.7869 24.3484 25.7229 27.4084 23.4279C30.4684 21.1329 32.6199 21.2285 34.9149 21.5632C35.7277 22.0413 37.2577 25.8663 35.8711 29.9303C35.7755 30.2172 35.6321 30.5519 35.4886 30.8387C34.5802 32.8468 33.2893 34.5203 32.2374 35.7156C30.6596 35.3331 29.3687 35.3809 29.3687 35.3809C30.0859 35.7156 30.803 36.1459 31.4246 36.5762C33.3849 37.9149 34.6758 39.3493 34.8193 39.4927C35.5364 40.4011 36.1102 41.453 36.4449 42.5527Z" fill="#D8D6CE"/>
<path id="Vector_4" d="M14.7861 34.1856C15.312 33.8988 15.8379 33.6597 16.4117 33.5163C16.4595 33.5163 16.4595 33.5163 16.5073 33.4684C16.7463 33.3728 16.9376 33.325 17.1767 33.2772C17.2245 33.2772 17.2723 33.2294 17.3201 33.2294C18.1329 33.0381 18.9935 32.9425 19.8541 32.9903C21.0494 33.0381 22.1969 33.2772 23.44 33.5641C24.0616 33.7075 24.6353 33.8509 25.2569 34.0422C25.2569 34.0422 25.9741 34.2334 26.7391 34.2812C32.9068 33.8509 32.9068 25.7229 32.9068 25.7229C32.9068 25.7229 22.2925 31.03 19.5194 31.6516C18.9935 31.6516 18.4198 31.6994 17.8938 31.795C17.4635 31.8906 17.0332 32.0341 16.6029 32.1775C16.2204 32.1775 11.7261 31.8428 6.27552 29.6435C5.98865 33.8987 11.2002 36.4328 11.2002 36.4328C11.2002 36.4328 11.9173 35.8112 13.0648 35.0941L14.4992 34.3291C14.5948 34.2812 14.6904 34.2334 14.7861 34.1856ZM29.8946 29.5479C29.56 31.6994 27.9344 32.8947 26.2131 33.0859C25.735 33.1338 25.1613 33.0381 24.6353 32.8947C24.3006 32.7513 23.2488 32.4644 23.2488 32.4644C23.2488 32.4644 27.8865 30.791 29.8946 29.5479ZM11.5827 34.8072C11.2002 34.7594 9.71799 34.2334 9.00081 31.9863C10.483 33.2772 13.8298 33.6119 13.8298 33.6119C12.6345 34.4725 11.9651 34.855 11.5827 34.8072Z" fill="#D8D6CE"/>
<path id="Vector_5" d="M33.3371 42.744C33.6718 42.6005 34.0543 42.4093 34.5324 42.2658C33.0024 41.9312 30.5162 42.8874 30.5162 44.5608C30.5162 44.5608 31.0421 44.6564 31.6159 44.0349L31.6637 43.9871C31.8071 43.8436 32.094 43.7002 32.2374 44.0827C32.4287 44.6564 32.4287 45.2302 32.2374 45.8517C31.9506 46.7602 31.4246 47.6208 30.8031 48.4336C29.5121 50.0114 27.8387 51.3501 26.0697 52.402C25.6394 52.641 25.1613 52.8801 24.6831 53.0714C24.205 53.2626 23.7269 53.4539 23.201 53.5973C22.1969 53.8842 21.1929 54.1232 20.141 54.2188C18.0851 54.4579 16.0292 54.171 13.8776 53.7407C15.7423 54.936 17.9895 55.3663 20.2366 55.2229C21.3363 55.1751 22.436 54.9838 23.5356 54.7448C24.0616 54.6013 24.6353 54.4579 25.1134 54.2667C25.6394 54.0754 26.1653 53.8363 26.6912 53.5973C27.6953 53.0714 28.6037 52.4498 29.5121 51.7326C29.9425 51.3979 30.3728 51.0154 30.7553 50.6329C31.1378 50.2505 31.5202 49.8201 31.9027 49.3898C32.6199 48.4814 33.2415 47.4774 33.5762 46.2821C33.7196 45.6605 33.8152 45.0389 33.6718 44.3696C33.5762 44.0349 33.4805 43.6524 33.2893 43.3655C33.2893 43.3655 33.2893 43.3655 33.2893 43.3177C33.098 42.983 33.1459 42.8396 33.3371 42.744Z" fill="#D8D6CE"/>
</g>
</svg>
