<svg width="91" height="125" viewBox="0 0 91 125" fill="none" xmlns="http://www.w3.org/2000/svg">
<path d="M43.3078 72.2533C41.891 73.2653 41.5874 75.188 43.1054 77.4144C44.6233 79.6407 46.3437 80.7539 48.3676 80.6527C50.088 80.5515 50.1891 76.9084 48.6712 74.5809C47.052 72.3545 44.7245 71.3426 43.3078 72.2533Z" fill="#ADABA4"/>
<path d="M33.3905 75.7954C32.1761 77.6169 32.1761 80.5516 33.3905 80.5516C35.0096 80.5516 36.3252 79.6409 37.5395 77.8193C38.7539 75.9978 38.5515 74.4798 37.5395 73.7714C36.5276 73.0631 34.706 73.9738 33.3905 75.7954Z" fill="#ADABA4"/>
<path d="M79.8398 76.3013C87.8343 64.866 90.5666 55.7583 90.3643 48.4722C90.3643 48.371 90.3643 48.2698 90.3643 48.1686C90.2631 44.7279 89.3523 41.5908 88.3403 38.9597C87.4295 36.6321 86.3164 34.8106 85.5068 33.495C84.6972 32.2807 83.4829 31.5723 82.0661 31.4711C81.7625 31.4711 81.3577 31.4711 81.0541 31.4711C79.8398 29.852 78.423 28.2328 76.8039 26.5125C70.1249 19.2263 63.2435 14.3688 60.1064 12.3449C66.9878 5.46353 60.41 0.100098 60.41 0.100098C61.6244 4.35036 56.7669 7.89225 45.8377 10.6246C43.7125 11.1305 41.7898 11.6365 40.0694 12.1425C39.5635 12.3449 38.9563 12.4461 38.4503 12.6485C21.5504 17.9107 10.9248 32.9891 4.75176 54.544C-0.00448406 59.199 -1.52244 71.3426 3.43621 78.9324L9.60921 86.5222C9.71041 86.6234 9.71041 86.6234 9.71041 86.7245C8.29365 88.1413 6.47211 90.4688 5.25775 93.8083C5.05536 94.3143 4.85296 94.9215 4.75176 95.4275C4.65057 95.8323 4.54937 96.237 4.54937 96.6418C4.44817 97.1478 4.44817 97.5526 4.44817 98.0586C4.44817 98.5646 4.44817 98.9694 4.54937 99.4753C4.65057 100.386 4.95416 101.398 5.25775 102.309C5.25775 102.41 5.35894 102.511 5.35894 102.714C7.99006 109.393 15.8834 116.881 22.7648 120.727C23.4732 121.131 24.1815 121.536 24.8899 121.84C25.5983 122.143 26.4079 122.447 27.1163 122.751C28.533 123.358 30.051 123.763 31.5689 124.167C32.9857 124.471 34.6048 124.775 36.1228 124.876C36.3252 124.876 36.4264 124.876 36.73 124.977C36.9323 124.977 37.0335 124.977 37.3371 124.977C37.5395 124.977 37.6407 124.977 37.9443 124.977C38.1467 124.977 38.2479 124.977 38.5515 124.977C38.7539 124.977 38.8551 124.977 39.1587 124.977C39.3611 124.977 39.4623 124.977 39.7659 124.977C39.9683 124.977 40.0694 124.977 40.373 124.977C40.5754 124.977 40.6766 124.977 40.9802 124.977C41.1826 124.977 41.2838 124.977 41.5874 124.977C41.7898 124.977 41.891 124.977 42.1946 124.977C42.397 124.977 42.4982 124.977 42.8018 124.977C43.0042 124.977 43.1054 124.977 43.4089 124.876C43.6113 124.876 43.7125 124.876 44.0161 124.775C44.2185 124.775 44.3197 124.775 44.6233 124.673C44.8257 124.673 44.9269 124.673 45.2305 124.572C45.4329 124.572 45.6353 124.471 45.8377 124.471C47.4568 124.269 49.076 123.864 50.6951 123.459C52.4155 122.953 54.0346 122.447 55.6538 121.84C59.1956 120.423 62.5351 118.804 65.8746 116.982C67.4938 115.97 69.1129 114.958 70.7321 113.845C72.25 112.732 73.6668 111.518 75.0835 110.303C77.1075 108.279 78.8278 106.256 80.3458 103.928C80.8518 103.017 81.2565 102.208 81.6613 101.398V101.297C81.8637 100.892 81.9649 100.69 82.0661 100.285C82.2685 99.7789 82.4709 99.4753 82.5721 99.1718C83.3817 97.1478 83.8877 95.3263 84.09 93.7071C84.1912 93.0999 84.1912 92.3916 84.1912 91.8856C84.1912 89.5581 83.3817 87.5341 82.0661 85.7126C81.2565 84.5994 79.2326 82.6767 78.1194 81.5635C77.6135 81.0575 77.5123 80.3492 77.8158 79.742C77.8158 79.1348 78.6254 78.0216 79.8398 76.3013ZM77.5123 90.1652C78.3218 93.4035 78.6254 101.904 68.5057 109.797C68.2021 110 67.8986 110.202 67.595 110.506C66.2794 111.417 64.9639 112.327 63.5471 113.137C60.8148 114.655 57.9813 116.072 54.9454 117.185C52.1119 118.197 49.2783 119.006 46.2424 119.614C40.4742 120.423 35.0096 120.221 29.545 118.5C26.7115 117.488 24.1815 116.173 21.7528 114.655C20.9432 114.149 20.1337 113.441 19.3241 112.833C14.1631 108.178 9.40682 102.511 9.8116 96.5406C10.014 93.1 13.4547 88.0401 16.4906 84.2958C17.9073 82.6767 19.3241 81.0575 20.6397 79.3372C20.6397 79.3372 20.1337 79.6408 19.4253 80.1468C18.9193 80.5515 18.2109 80.9563 17.4014 81.5635C15.5798 79.8432 13.3535 77.5156 11.8355 75.6941C9.71041 73.2654 9.00203 70.3307 9.8116 67.8008C8.29365 68.4079 7.48408 69.1163 7.48408 69.1163C10.52 62.4373 14.9726 60.6158 14.9726 60.6158C20.8421 57.9847 28.3306 62.2349 28.3306 62.2349C30.9617 63.3481 33.1881 63.9553 35.5156 63.6517C41.9922 63.1457 51.9095 54.544 58.3861 49.6865C64.8627 44.8291 69.4165 45.0315 74.274 45.7398C75.9943 46.7518 79.2326 54.8476 76.2979 63.4493C76.0955 64.0565 75.7919 64.7648 75.4883 65.372C73.5656 69.6223 70.8333 73.1642 68.6069 75.6941C65.2674 74.8845 62.5351 74.9857 62.5351 74.9857C64.0531 75.6941 65.571 76.6049 66.8866 77.5156C71.0357 80.3492 73.768 83.3851 74.0716 83.6886C75.5895 85.6114 76.8039 87.8377 77.5123 90.1652Z" fill="#ADABA4"/>
<path d="M31.6701 72.4558C32.7833 71.8486 33.8965 71.3426 35.1108 71.039C35.212 71.039 35.212 71.039 35.3132 70.9378C35.8192 70.7354 36.224 70.6342 36.73 70.533C36.8312 70.533 36.9324 70.4318 37.0336 70.4318C38.7539 70.0271 40.5755 69.8247 42.397 69.9259C44.9269 70.0271 47.3556 70.533 49.9868 71.1402C51.3023 71.4438 52.5167 71.7474 53.8322 72.1522C53.8322 72.1522 55.3502 72.557 56.9693 72.6582C70.0237 71.7474 70.0237 54.5439 70.0237 54.5439C70.0237 54.5439 47.558 65.7768 41.6886 67.0923C40.5755 67.0923 39.3611 67.1935 38.2479 67.3959C37.3372 67.5983 36.4264 67.9019 35.5156 68.2055C34.706 68.2055 25.1935 67.4971 13.6571 62.8421C13.0499 71.8486 24.0804 77.212 24.0804 77.212C24.0804 77.212 25.5983 75.8965 28.0271 74.3785L31.063 72.7594C31.2654 72.6582 31.4677 72.557 31.6701 72.4558ZM63.6483 62.6397C62.94 67.1935 59.4993 69.7235 55.8562 70.1283C54.8442 70.2294 53.6298 70.0271 52.5167 69.7235C51.8083 69.4199 49.582 68.8127 49.582 68.8127C49.582 68.8127 59.3981 65.2708 63.6483 62.6397ZM24.89 73.7713C24.0804 73.6701 20.9433 72.557 19.4253 67.8007C22.5624 70.533 29.6462 71.2414 29.6462 71.2414C27.1163 73.063 25.6995 73.8725 24.89 73.7713Z" fill="#ADABA4"/>
<path d="M70.9345 90.5702C71.6428 90.2666 72.4524 89.8618 73.4644 89.5582C70.2261 88.8499 64.9639 90.8738 64.9639 94.4157C64.9639 94.4157 66.077 94.6181 67.2914 93.3025L67.3926 93.2013C67.6962 92.8977 68.3034 92.5941 68.6069 93.4037C69.0117 94.6181 69.0117 95.8324 68.6069 97.148C67.9998 99.0707 66.8866 100.892 65.571 102.613C62.8387 105.952 59.2968 108.786 55.5526 111.012C54.6418 111.518 53.6298 112.024 52.6178 112.429C51.6059 112.833 50.5939 113.238 49.4807 113.542C47.3556 114.149 45.2305 114.655 43.0042 114.857C38.6527 115.363 34.3012 114.756 29.7474 113.845C33.6941 116.375 38.4503 117.286 43.2065 116.983C45.5341 116.881 47.8616 116.477 50.1891 115.971C51.3023 115.667 52.5167 115.363 53.5286 114.959C54.6418 114.554 55.7549 114.048 56.8681 113.542C58.9932 112.429 60.916 111.113 62.8387 109.595C63.7495 108.887 64.6603 108.077 65.4698 107.268C66.2794 106.458 67.089 105.547 67.8986 104.637C69.4165 102.714 70.7321 100.589 71.4404 98.0588C71.744 96.7432 71.9464 95.4276 71.6428 94.0109C71.4405 93.3025 71.2381 92.4929 70.8333 91.8858C70.8333 91.8858 70.8333 91.8858 70.8333 91.7846C70.4285 91.0762 70.5297 90.7726 70.9345 90.5702Z" fill="#ADABA4"/>
</svg>
